<svg xmlns="http://www.w3.org/2000/svg" version="1.1" xmlns:xlink="http://www.w3.org/1999/xlink" xmlns:svgjs="http://svgjs.dev/svgjs" width="2000" height="277" viewBox="0 0 2000 277"><g transform="matrix(1,0,0,1,-1.2121212121212466,-0.23887464616882426)"><svg viewBox="0 0 396 55" data-background-color="#ffffff" preserveAspectRatio="xMidYMid meet" height="277" width="2000" xmlns="http://www.w3.org/2000/svg" xmlns:xlink="http://www.w3.org/1999/xlink"><g id="tight-bounds" transform="matrix(1,0,0,1,0.2400000000000091,0.047429983896336125)"><svg viewBox="0 0 395.52 54.905140032207306" height="54.905140032207306" width="395.52"><g><svg viewBox="0 0 470.95848934206543 65.37733061964734" height="54.905140032207306" width="395.52"><g transform="matrix(1,0,0,1,75.43848934206545,11.379513336691854)"><svg viewBox="0 0 395.52 42.61830394626363" height="42.61830394626363" width="395.52"><g id="textblocktransform"><svg viewBox="0 0 395.52 42.61830394626363" height="42.61830394626363" width="395.52" id="textblock"><g><svg viewBox="0 0 395.52 42.61830394626363" height="42.61830394626363" width="395.52"><g transform="matrix(1,0,0,1,0,0)"><svg width="395.52" viewBox="4 -28.75 359.17999999999995 38.5" height="42.61830394626363" data-palette-color="url(#999a14c0-eab3-41cb-bd10-cde72bd3b131)"><g class="wordmark-text-0" data-fill-palette-color="primary" id="text-0"><path d="M175.89-28.75L175.89-28.75 182.19-28.75 182.19-17.2 191.89-17.2 191.89-11.5 182.19-11.5 182.19 0 175.89 0 175.89-28.75ZM210.34-28.75L210.34-28.75 204.04-28.75 204.04-17.2 194.34-17.2 194.34-11.5 204.04-11.5 204.04 0 210.34 0 210.34-28.75ZM249.64-21.85L249.64 0 243.39 0 243.39-2.25 235.89 0 235.89-5.25 243.39-5.25 243.39-21.85 249.64-21.85ZM219.84-21.85L219.84-3.45 225.49 0 233.59 0 233.59-5.25 226.14-5.25 226.14-21.85 219.84-21.85ZM288.43-9.7L288.43-3.45 282.73 0 274.68 0 274.68-5.25 282.38-5.25 282.38-9.3 274.83-9.3 274.83-13.2 282.73-13.2 288.43-9.7ZM258.63-12.75L258.63-18.4 264.33-21.85 272.43-21.85 272.43-17.2 264.93-17.2 264.93-13.2 272.43-13.2 272.43-9.3 264.33-9.3 258.63-12.75ZM258.63-6.95L264.93-6.95 264.93-5.25 272.43-5.25 272.43 0 264.33 0 258.63-3.45 258.63-6.95ZM288.43-15.05L282.18-15.05 282.18-17.2 274.68-17.2 274.68-21.85 282.73-21.85 288.43-18.4 288.43-15.05ZM297.43 0.05L297.43-28.75 303.73-28.75 303.73-13.1 306.53-13.1 306.53-9.45 303.73-9.45 303.73 0.05 297.43 0.05ZM327.28-3.4L314.73-11.5 326.18-19.05 322.03-22 309.03-13.1 309.03-9.45 321.63 0.05 327.28-3.4ZM333.28-6.35L333.28-21.9 339.58-21.9 339.58-6.9 347.08-6.9 347.08-2.9 339.03-2.9 333.28-6.35ZM333.28 2.25L339.58 2.25 339.58 4.55 347.08 4.55 347.08 9.75 339.03 9.75 333.28 6.3 333.28 2.25ZM356.88-21.9L363.18-21.9 363.18 6.3 356.88 9.75 349.38 9.75 349.38 4.55 356.88 4.55 356.88-2.9 349.38-2.9 349.38-6.9 356.88-6.9 356.88-21.9Z" fill="#10030f" data-fill-palette-color="secondary"></path></g></svg></g></svg></g></svg></g></svg></g><g><svg viewBox="0 0 65.37733061964732 65.37733061964734" height="65.37733061964734" width="65.37733061964732"><g><svg></svg></g><g id="icon-0"><svg viewBox="0 0 65.37733061964732 65.37733061964734" height="65.37733061964734" width="65.37733061964732"><g></g><g transform="matrix(1,0,0,1,13.075466123929463,13.20774331672338)"><svg viewBox="0 0 39.2263983717884 38.96184398620058" height="38.96184398620058" width="39.2263983717884"><g><svg xmlns="http://www.w3.org/2000/svg" xmlns:xlink="http://www.w3.org/1999/xlink" version="1.1" x="0" y="0" viewBox="5 5 90.00200000000001 89.39500000000001" enable-background="new 0 0 100 100" xml:space="preserve" height="38.96184398620058" width="39.2263983717884" class="icon-cg-0" data-fill-palette-color="quaternary" id="cg-0"><path d="M50.001 14.562c1.054 0 1.912-0.847 1.912-1.911V6.914C51.913 5.858 51.056 5 50.001 5s-1.912 0.858-1.912 1.914v5.737C48.089 13.715 48.947 14.562 50.001 14.562z" fill="#ffffff" data-fill-palette-color="quaternary"></path><path d="M29.666 18.617c0.364 0.608 1.004 0.96 1.667 0.96 0.318 0 0.649-0.083 0.952-0.259 0.918-0.527 1.226-1.694 0.701-2.615l-2.875-4.972c-0.524-0.919-1.694-1.231-2.614-0.703-0.911 0.527-1.22 1.705-0.694 2.615L29.666 18.617z" fill="#ffffff" data-fill-palette-color="quaternary"></path><path d="M18.617 29.667l-4.974-2.864c-0.911-0.527-2.088-0.218-2.618 0.703-0.526 0.911-0.205 2.078 0.705 2.616l4.972 2.863c0.299 0.178 0.63 0.259 0.949 0.259 0.664 0 1.303-0.342 1.667-0.96C19.844 31.372 19.535 30.205 18.617 29.667z" fill="#ffffff" data-fill-palette-color="quaternary"></path><path d="M14.562 50.001c0-1.052-0.847-1.912-1.911-1.912H6.914C5.858 48.089 5 48.949 5 50.001c0 1.056 0.858 1.915 1.914 1.915h5.737C13.715 51.916 14.562 51.058 14.562 50.001z" fill="#ffffff" data-fill-palette-color="quaternary"></path><path d="M16.703 67.018l-4.972 2.875c-0.922 0.527-1.231 1.694-0.705 2.604 0.353 0.621 1.003 0.96 1.654 0.96 0.332 0 0.661-0.083 0.964-0.257l4.974-2.862c0.906-0.539 1.227-1.708 0.701-2.616C18.792 66.8 17.624 66.491 16.703 67.018z" fill="#ffffff" data-fill-palette-color="quaternary"></path><path d="M88.273 69.893l-4.972-2.875c-0.911-0.526-2.08-0.218-2.616 0.704-0.527 0.908-0.209 2.077 0.701 2.616l4.972 2.862c0.301 0.174 0.634 0.257 0.952 0.257 0.662 0 1.305-0.339 1.664-0.948C89.503 71.587 89.192 70.42 88.273 69.893z" fill="#ffffff" data-fill-palette-color="quaternary"></path><path d="M93.09 48.089h-5.738c-1.054 0-1.911 0.86-1.911 1.912 0 1.056 0.857 1.915 1.911 1.915h5.738c1.054 0 1.912-0.858 1.912-1.915C95.002 48.949 94.144 48.089 93.09 48.089z" fill="#ffffff" data-fill-palette-color="quaternary"></path><path d="M82.35 33.244c0.319 0 0.651-0.081 0.952-0.259l4.972-2.863c0.919-0.528 1.229-1.705 0.701-2.616-0.527-0.92-1.693-1.23-2.616-0.703l-4.972 2.864c-0.91 0.538-1.229 1.705-0.701 2.616C81.045 32.892 81.688 33.244 82.35 33.244z" fill="#ffffff" data-fill-palette-color="quaternary"></path><path d="M67.722 19.308c0.296 0.177 0.631 0.258 0.949 0.258 0.663 0 1.304-0.34 1.665-0.949l2.864-4.974c0.528-0.91 0.216-2.088-0.703-2.615-0.91-0.529-2.077-0.217-2.604 0.703l-2.875 4.972C66.491 17.614 66.8 18.781 67.722 19.308z" fill="#ffffff" data-fill-palette-color="quaternary"></path><path d="M50.001 22.449c-14.8 0-26.849 11.646-26.849 25.959 0 9.289 3.769 14.818 6.547 18.89 1.706 2.503 2.678 3.989 2.678 5.492 0 3.365 1.797 6.539 5.006 8.923 0.083 1.999 0.376 6.867 0.376 6.867v0.01c0.055 1.384 5.557 5.805 5.557 5.805h13.378c0 0 5.511-4.476 5.548-5.814 0 0 0.294-4.868 0.375-6.867 3.21-2.376 5.007-5.558 5.007-8.923 0-1.494 0.973-2.989 2.696-5.52 2.751-4.035 6.529-9.564 6.529-18.862C76.851 34.094 64.801 22.449 50.001 22.449zM50.002 71.936c-1.833 0-3.344-1.51-3.344-3.346 0-1.837 1.511-3.339 3.344-3.339 1.834 0 3.341 1.502 3.341 3.339C53.343 70.426 51.836 71.936 50.002 71.936zM53.641 48.209c0 0.686-0.098 1.427-0.188 2.162l-1.428 10.772c-0.18 1.339-0.833 1.706-2.024 1.706-1.199 0-1.845-0.367-2.024-1.706l-1.427-10.772c-0.098-0.735-0.188-1.477-0.188-2.162v-5.347c0-2.351 1.336-3.541 3.639-3.541 2.302 0 3.64 1.19 3.64 3.541V48.209z" fill="#ffffff" data-fill-palette-color="quaternary"></path></svg></g></svg></g></svg></g></svg></g></svg></g><defs></defs><mask id="207602f5-03b6-4e19-84cd-c39ec44f564d"><g id="SvgjsG2577"><svg viewBox="0 0 395.52 54.905140032207306" height="54.905140032207306" width="395.52"><g><svg viewBox="0 0 470.95848934206543 65.37733061964734" height="54.905140032207306" width="395.52"><g transform="matrix(1,0,0,1,75.43848934206545,11.379513336691854)"><svg viewBox="0 0 395.52 42.61830394626363" height="42.61830394626363" width="395.52"><g id="SvgjsG2576"><svg viewBox="0 0 395.52 42.61830394626363" height="42.61830394626363" width="395.52" id="SvgjsSvg2575"><g><svg viewBox="0 0 395.52 42.61830394626363" height="42.61830394626363" width="395.52"><g transform="matrix(1,0,0,1,0,0)"><svg width="395.52" viewBox="4 -28.75 359.17999999999995 38.5" height="42.61830394626363" data-palette-color="url(#999a14c0-eab3-41cb-bd10-cde72bd3b131)"><g class="wordmark-text-0" data-fill-palette-color="primary" id="SvgjsG2574"><path d="M34.2-18.55L34.2-12.85 28.3-9.4 20.3-9.4 20.3-13.25 27.85-13.25 27.85-17.35 20.3-17.35 20.3-22.05 28.3-22.05 34.2-18.55ZM27.65-6.95L34.2-6.95 34.2-3.45 28.3 0 20.3 0 20.3-5.3 27.65-5.3 27.65-6.95ZM4-18.55L4-3.45 9.9 0 17.85 0 17.85-5.3 10.3-5.3 10.3-9.4 17.85-9.4 17.85-13.25 10.3-13.25 10.3-17.35 17.85-17.35 17.85-22.05 9.9-22.05 4-18.55ZM55.7-19.05L55.7-9.7 45.35 0 39.7-1.8 52.9-14.35 39.7-26.9 45.35-28.75 55.7-19.05ZM74.15-26.9L60.75-14.35 74.15-1.8 68.3 0 57.95-9.7 57.95-19.05 68.3-28.75 74.15-26.9ZM79.65-3.4L79.65-9.75 85.35-13.2 93.55-13.2 93.55-9.35 86-9.35 86-5.25 93.55-5.25 93.55 0.05 85.35 0.05 79.65-3.4ZM86-15.05L79.65-15.05 79.65-18.5 85.35-22 93.55-22 93.55-17.3 86-17.3 86-15.05ZM109.65 0.05L109.65-18.5 103.95-22 95.75-22 95.75-17.3 103.3-17.3 103.3-13.2 95.75-13.2 95.75-9.35 103.3-9.35 103.3-5.25 95.95-5.25 95.95 0.05 109.65 0.05ZM119.14-0.05L119.14-22 125.39-22 125.39-19.85 133.09-22 133.09-17.3 125.39-17.3 125.39-0.05 119.14-0.05ZM155.89-18.55L150.19-22 148.04-22 141.64-19.25 135.09-22 135.09-17.3 135.09-0.05 141.64-0.05 141.64-17.3 149.64-17.3 149.64-0.05 155.89-0.05 155.89-18.55Z" fill="white"></path><path d="M175.89-28.75L175.89-28.75 182.19-28.75 182.19-17.2 191.89-17.2 191.89-11.5 182.19-11.5 182.19 0 175.89 0 175.89-28.75ZM210.34-28.75L210.34-28.75 204.04-28.75 204.04-17.2 194.34-17.2 194.34-11.5 204.04-11.5 204.04 0 210.34 0 210.34-28.75ZM249.64-21.85L249.64 0 243.39 0 243.39-2.25 235.89 0 235.89-5.25 243.39-5.25 243.39-21.85 249.64-21.85ZM219.84-21.85L219.84-3.45 225.49 0 233.59 0 233.59-5.25 226.14-5.25 226.14-21.85 219.84-21.85ZM288.43-9.7L288.43-3.45 282.73 0 274.68 0 274.68-5.25 282.38-5.25 282.38-9.3 274.83-9.3 274.83-13.2 282.73-13.2 288.43-9.7ZM258.63-12.75L258.63-18.4 264.33-21.85 272.43-21.85 272.43-17.2 264.93-17.2 264.93-13.2 272.43-13.2 272.43-9.3 264.33-9.3 258.63-12.75ZM258.63-6.95L264.93-6.95 264.93-5.25 272.43-5.25 272.43 0 264.33 0 258.63-3.45 258.63-6.95ZM288.43-15.05L282.18-15.05 282.18-17.2 274.68-17.2 274.68-21.85 282.73-21.85 288.43-18.4 288.43-15.05ZM297.43 0.05L297.43-28.75 303.73-28.75 303.73-13.1 306.53-13.1 306.53-9.45 303.73-9.45 303.73 0.05 297.43 0.05ZM327.28-3.4L314.73-11.5 326.18-19.05 322.03-22 309.03-13.1 309.03-9.45 321.63 0.05 327.28-3.4ZM333.28-6.35L333.28-21.9 339.58-21.9 339.58-6.9 347.08-6.9 347.08-2.9 339.03-2.9 333.28-6.35ZM333.28 2.25L339.58 2.25 339.58 4.55 347.08 4.55 347.08 9.75 339.03 9.75 333.28 6.3 333.28 2.25ZM356.88-21.9L363.18-21.9 363.18 6.3 356.88 9.75 349.38 9.75 349.38 4.55 356.88 4.55 356.88-2.9 349.38-2.9 349.38-6.9 356.88-6.9 356.88-21.9Z" fill="black"></path></g></svg></g></svg></g></svg></g></svg></g><g><svg viewBox="0 0 65.37733061964732 65.37733061964734" height="65.37733061964734" width="65.37733061964732"><g><svg></svg></g><g id="SvgjsG2573"><svg viewBox="0 0 65.37733061964732 65.37733061964734" height="65.37733061964734" width="65.37733061964732"><g><path transform="scale(0.65377,0.65377)" d="M30 100c-16.569 0-30-13.431-30-30v-40c0-16.569 13.431-30 30-30h40c16.569 0 30 13.431 30 30v40c0 16.569-13.431 30-30 30z" fill="black" fill-rule="nonzero" stroke="none" stroke-width="1" stroke-linecap="butt" stroke-linejoin="miter" stroke-miterlimit="10" stroke-dasharray="" stroke-dashoffset="0" font-family="none" font-weight="none" font-size="none" text-anchor="none" style="mix-blend-mode: normal"></path></g><g transform="matrix(1,0,0,1,13.075466123929463,13.20774331672338)"><svg viewBox="0 0 39.2263983717884 38.96184398620058" height="38.96184398620058" width="39.2263983717884"><g><svg xmlns="http://www.w3.org/2000/svg" xmlns:xlink="http://www.w3.org/1999/xlink" version="1.1" x="0" y="0" viewBox="5 5 90.00200000000001 89.39500000000001" enable-background="new 0 0 100 100" xml:space="preserve" height="38.96184398620058" width="39.2263983717884" class="icon-cg-0" data-fill-palette-color="quaternary" id="SvgjsSvg2572"><path d="M50.001 14.562c1.054 0 1.912-0.847 1.912-1.911V6.914C51.913 5.858 51.056 5 50.001 5s-1.912 0.858-1.912 1.914v5.737C48.089 13.715 48.947 14.562 50.001 14.562z" fill="black"></path><path d="M29.666 18.617c0.364 0.608 1.004 0.96 1.667 0.96 0.318 0 0.649-0.083 0.952-0.259 0.918-0.527 1.226-1.694 0.701-2.615l-2.875-4.972c-0.524-0.919-1.694-1.231-2.614-0.703-0.911 0.527-1.22 1.705-0.694 2.615L29.666 18.617z" fill="black"></path><path d="M18.617 29.667l-4.974-2.864c-0.911-0.527-2.088-0.218-2.618 0.703-0.526 0.911-0.205 2.078 0.705 2.616l4.972 2.863c0.299 0.178 0.63 0.259 0.949 0.259 0.664 0 1.303-0.342 1.667-0.96C19.844 31.372 19.535 30.205 18.617 29.667z" fill="black"></path><path d="M14.562 50.001c0-1.052-0.847-1.912-1.911-1.912H6.914C5.858 48.089 5 48.949 5 50.001c0 1.056 0.858 1.915 1.914 1.915h5.737C13.715 51.916 14.562 51.058 14.562 50.001z" fill="black"></path><path d="M16.703 67.018l-4.972 2.875c-0.922 0.527-1.231 1.694-0.705 2.604 0.353 0.621 1.003 0.96 1.654 0.96 0.332 0 0.661-0.083 0.964-0.257l4.974-2.862c0.906-0.539 1.227-1.708 0.701-2.616C18.792 66.8 17.624 66.491 16.703 67.018z" fill="black"></path><path d="M88.273 69.893l-4.972-2.875c-0.911-0.526-2.08-0.218-2.616 0.704-0.527 0.908-0.209 2.077 0.701 2.616l4.972 2.862c0.301 0.174 0.634 0.257 0.952 0.257 0.662 0 1.305-0.339 1.664-0.948C89.503 71.587 89.192 70.42 88.273 69.893z" fill="black"></path><path d="M93.09 48.089h-5.738c-1.054 0-1.911 0.86-1.911 1.912 0 1.056 0.857 1.915 1.911 1.915h5.738c1.054 0 1.912-0.858 1.912-1.915C95.002 48.949 94.144 48.089 93.09 48.089z" fill="black"></path><path d="M82.35 33.244c0.319 0 0.651-0.081 0.952-0.259l4.972-2.863c0.919-0.528 1.229-1.705 0.701-2.616-0.527-0.92-1.693-1.23-2.616-0.703l-4.972 2.864c-0.91 0.538-1.229 1.705-0.701 2.616C81.045 32.892 81.688 33.244 82.35 33.244z" fill="black"></path><path d="M67.722 19.308c0.296 0.177 0.631 0.258 0.949 0.258 0.663 0 1.304-0.34 1.665-0.949l2.864-4.974c0.528-0.91 0.216-2.088-0.703-2.615-0.91-0.529-2.077-0.217-2.604 0.703l-2.875 4.972C66.491 17.614 66.8 18.781 67.722 19.308z" fill="black"></path><path d="M50.001 22.449c-14.8 0-26.849 11.646-26.849 25.959 0 9.289 3.769 14.818 6.547 18.89 1.706 2.503 2.678 3.989 2.678 5.492 0 3.365 1.797 6.539 5.006 8.923 0.083 1.999 0.376 6.867 0.376 6.867v0.01c0.055 1.384 5.557 5.805 5.557 5.805h13.378c0 0 5.511-4.476 5.548-5.814 0 0 0.294-4.868 0.375-6.867 3.21-2.376 5.007-5.558 5.007-8.923 0-1.494 0.973-2.989 2.696-5.52 2.751-4.035 6.529-9.564 6.529-18.862C76.851 34.094 64.801 22.449 50.001 22.449zM50.002 71.936c-1.833 0-3.344-1.51-3.344-3.346 0-1.837 1.511-3.339 3.344-3.339 1.834 0 3.341 1.502 3.341 3.339C53.343 70.426 51.836 71.936 50.002 71.936zM53.641 48.209c0 0.686-0.098 1.427-0.188 2.162l-1.428 10.772c-0.18 1.339-0.833 1.706-2.024 1.706-1.199 0-1.845-0.367-2.024-1.706l-1.427-10.772c-0.098-0.735-0.188-1.477-0.188-2.162v-5.347c0-2.351 1.336-3.541 3.639-3.541 2.302 0 3.64 1.19 3.64 3.541V48.209z" fill="black"></path></svg></g></svg></g></svg></g></svg></g></svg></g><defs><mask></mask></defs></svg><rect width="395.52" height="54.905140032207306" fill="black" stroke="none" visibility="hidden"></rect></g></mask><linearGradient x1="0.054" x2="0.941" y1="0.5" y2="0.5" id="999a14c0-eab3-41cb-bd10-cde72bd3b131"><stop stop-color="#0f3054" offset="0"></stop><stop stop-color="#3b8dcb" offset="0.498"></stop><stop stop-color="#0f3054" offset="1"></stop></linearGradient><rect width="395.52000000000004" height="54.905140032207306" fill="url(#999a14c0-eab3-41cb-bd10-cde72bd3b131)" mask="url(#207602f5-03b6-4e19-84cd-c39ec44f564d)" data-fill-palette-color="primary"></rect><mask id="8dbc97df-69b4-49af-b9d2-ae1cf1703079"><g id="SvgjsG2589"><svg viewBox="0 0 395.52 54.905140032207306" height="54.905140032207306" width="395.52"><g><svg viewBox="0 0 470.95848934206543 65.37733061964734" height="54.905140032207306" width="395.52"><g transform="matrix(1,0,0,1,75.43848934206545,11.379513336691854)"><svg viewBox="0 0 395.52 42.61830394626363" height="42.61830394626363" width="395.52"><g id="SvgjsG2588"><svg viewBox="0 0 395.52 42.61830394626363" height="42.61830394626363" width="395.52" id="SvgjsSvg2587"><g><svg viewBox="0 0 395.52 42.61830394626363" height="42.61830394626363" width="395.52"><g transform="matrix(1,0,0,1,0,0)"><svg width="395.52" viewBox="4 -28.75 359.17999999999995 38.5" height="42.61830394626363" data-palette-color="url(#999a14c0-eab3-41cb-bd10-cde72bd3b131)"><g class="wordmark-text-0" data-fill-palette-color="primary" id="SvgjsG2586"><path d="M175.89-28.75L175.89-28.75 182.19-28.75 182.19-17.2 191.89-17.2 191.89-11.5 182.19-11.5 182.19 0 175.89 0 175.89-28.75ZM210.34-28.75L210.34-28.75 204.04-28.75 204.04-17.2 194.34-17.2 194.34-11.5 204.04-11.5 204.04 0 210.34 0 210.34-28.75ZM249.64-21.85L249.64 0 243.39 0 243.39-2.25 235.89 0 235.89-5.25 243.39-5.25 243.39-21.85 249.64-21.85ZM219.84-21.85L219.84-3.45 225.49 0 233.59 0 233.59-5.25 226.14-5.25 226.14-21.85 219.84-21.85ZM288.43-9.7L288.43-3.45 282.73 0 274.68 0 274.68-5.25 282.38-5.25 282.38-9.3 274.83-9.3 274.83-13.2 282.73-13.2 288.43-9.7ZM258.63-12.75L258.63-18.4 264.33-21.85 272.43-21.85 272.43-17.2 264.93-17.2 264.93-13.2 272.43-13.2 272.43-9.3 264.33-9.3 258.63-12.75ZM258.63-6.95L264.93-6.95 264.93-5.25 272.43-5.25 272.43 0 264.33 0 258.63-3.45 258.63-6.95ZM288.43-15.05L282.18-15.05 282.18-17.2 274.68-17.2 274.68-21.85 282.73-21.85 288.43-18.4 288.43-15.05ZM297.43 0.05L297.43-28.75 303.73-28.75 303.73-13.1 306.53-13.1 306.53-9.45 303.73-9.45 303.73 0.05 297.43 0.05ZM327.28-3.4L314.73-11.5 326.18-19.05 322.03-22 309.03-13.1 309.03-9.45 321.63 0.05 327.28-3.4ZM333.28-6.35L333.28-21.9 339.58-21.9 339.58-6.9 347.08-6.9 347.08-2.9 339.03-2.9 333.28-6.35ZM333.28 2.25L339.58 2.25 339.58 4.55 347.08 4.55 347.08 9.75 339.03 9.75 333.28 6.3 333.28 2.25ZM356.88-21.9L363.18-21.9 363.18 6.3 356.88 9.75 349.38 9.75 349.38 4.55 356.88 4.55 356.88-2.9 349.38-2.9 349.38-6.9 356.88-6.9 356.88-21.9Z" fill="black"></path></g></svg></g></svg></g></svg></g></svg></g><g><svg viewBox="0 0 65.37733061964732 65.37733061964734" height="65.37733061964734" width="65.37733061964732"><g><svg></svg></g><g id="SvgjsG2585"><svg viewBox="0 0 65.37733061964732 65.37733061964734" height="65.37733061964734" width="65.37733061964732"><g><path transform="scale(0.65377,0.65377)" d="M30 100c-16.569 0-30-13.431-30-30v-40c0-16.569 13.431-30 30-30h40c16.569 0 30 13.431 30 30v40c0 16.569-13.431 30-30 30z" fill="white" fill-rule="nonzero" stroke="none" stroke-width="1" stroke-linecap="butt" stroke-linejoin="miter" stroke-miterlimit="10" stroke-dasharray="" stroke-dashoffset="0" font-family="none" font-weight="none" font-size="none" text-anchor="none" style="mix-blend-mode: normal"></path></g><g transform="matrix(1,0,0,1,13.075466123929463,13.20774331672338)"><svg viewBox="0 0 39.2263983717884 38.96184398620058" height="38.96184398620058" width="39.2263983717884"><g><svg xmlns="http://www.w3.org/2000/svg" xmlns:xlink="http://www.w3.org/1999/xlink" version="1.1" x="0" y="0" viewBox="5 5 90.00200000000001 89.39500000000001" enable-background="new 0 0 100 100" xml:space="preserve" height="38.96184398620058" width="39.2263983717884" class="icon-cg-0" data-fill-palette-color="quaternary" id="SvgjsSvg2584"><path d="M50.001 14.562c1.054 0 1.912-0.847 1.912-1.911V6.914C51.913 5.858 51.056 5 50.001 5s-1.912 0.858-1.912 1.914v5.737C48.089 13.715 48.947 14.562 50.001 14.562z" fill="black"></path><path d="M29.666 18.617c0.364 0.608 1.004 0.96 1.667 0.96 0.318 0 0.649-0.083 0.952-0.259 0.918-0.527 1.226-1.694 0.701-2.615l-2.875-4.972c-0.524-0.919-1.694-1.231-2.614-0.703-0.911 0.527-1.22 1.705-0.694 2.615L29.666 18.617z" fill="black"></path><path d="M18.617 29.667l-4.974-2.864c-0.911-0.527-2.088-0.218-2.618 0.703-0.526 0.911-0.205 2.078 0.705 2.616l4.972 2.863c0.299 0.178 0.63 0.259 0.949 0.259 0.664 0 1.303-0.342 1.667-0.96C19.844 31.372 19.535 30.205 18.617 29.667z" fill="black"></path><path d="M14.562 50.001c0-1.052-0.847-1.912-1.911-1.912H6.914C5.858 48.089 5 48.949 5 50.001c0 1.056 0.858 1.915 1.914 1.915h5.737C13.715 51.916 14.562 51.058 14.562 50.001z" fill="black"></path><path d="M16.703 67.018l-4.972 2.875c-0.922 0.527-1.231 1.694-0.705 2.604 0.353 0.621 1.003 0.96 1.654 0.96 0.332 0 0.661-0.083 0.964-0.257l4.974-2.862c0.906-0.539 1.227-1.708 0.701-2.616C18.792 66.8 17.624 66.491 16.703 67.018z" fill="black"></path><path d="M88.273 69.893l-4.972-2.875c-0.911-0.526-2.08-0.218-2.616 0.704-0.527 0.908-0.209 2.077 0.701 2.616l4.972 2.862c0.301 0.174 0.634 0.257 0.952 0.257 0.662 0 1.305-0.339 1.664-0.948C89.503 71.587 89.192 70.42 88.273 69.893z" fill="black"></path><path d="M93.09 48.089h-5.738c-1.054 0-1.911 0.86-1.911 1.912 0 1.056 0.857 1.915 1.911 1.915h5.738c1.054 0 1.912-0.858 1.912-1.915C95.002 48.949 94.144 48.089 93.09 48.089z" fill="black"></path><path d="M82.35 33.244c0.319 0 0.651-0.081 0.952-0.259l4.972-2.863c0.919-0.528 1.229-1.705 0.701-2.616-0.527-0.92-1.693-1.23-2.616-0.703l-4.972 2.864c-0.91 0.538-1.229 1.705-0.701 2.616C81.045 32.892 81.688 33.244 82.35 33.244z" fill="black"></path><path d="M67.722 19.308c0.296 0.177 0.631 0.258 0.949 0.258 0.663 0 1.304-0.34 1.665-0.949l2.864-4.974c0.528-0.91 0.216-2.088-0.703-2.615-0.91-0.529-2.077-0.217-2.604 0.703l-2.875 4.972C66.491 17.614 66.8 18.781 67.722 19.308z" fill="black"></path><path d="M50.001 22.449c-14.8 0-26.849 11.646-26.849 25.959 0 9.289 3.769 14.818 6.547 18.89 1.706 2.503 2.678 3.989 2.678 5.492 0 3.365 1.797 6.539 5.006 8.923 0.083 1.999 0.376 6.867 0.376 6.867v0.01c0.055 1.384 5.557 5.805 5.557 5.805h13.378c0 0 5.511-4.476 5.548-5.814 0 0 0.294-4.868 0.375-6.867 3.21-2.376 5.007-5.558 5.007-8.923 0-1.494 0.973-2.989 2.696-5.52 2.751-4.035 6.529-9.564 6.529-18.862C76.851 34.094 64.801 22.449 50.001 22.449zM50.002 71.936c-1.833 0-3.344-1.51-3.344-3.346 0-1.837 1.511-3.339 3.344-3.339 1.834 0 3.341 1.502 3.341 3.339C53.343 70.426 51.836 71.936 50.002 71.936zM53.641 48.209c0 0.686-0.098 1.427-0.188 2.162l-1.428 10.772c-0.18 1.339-0.833 1.706-2.024 1.706-1.199 0-1.845-0.367-2.024-1.706l-1.427-10.772c-0.098-0.735-0.188-1.477-0.188-2.162v-5.347c0-2.351 1.336-3.541 3.639-3.541 2.302 0 3.64 1.19 3.64 3.541V48.209z" fill="black"></path></svg></g></svg></g></svg></g></svg></g></svg></g><defs><mask></mask></defs><mask><g id="SvgjsG2583"><svg viewBox="0 0 395.52 54.905140032207306" height="54.905140032207306" width="395.52"><g><svg viewBox="0 0 470.95848934206543 65.37733061964734" height="54.905140032207306" width="395.52"><g transform="matrix(1,0,0,1,75.43848934206545,11.379513336691854)"><svg viewBox="0 0 395.52 42.61830394626363" height="42.61830394626363" width="395.52"><g id="SvgjsG2582"><svg viewBox="0 0 395.52 42.61830394626363" height="42.61830394626363" width="395.52" id="SvgjsSvg2581"><g><svg viewBox="0 0 395.52 42.61830394626363" height="42.61830394626363" width="395.52"><g transform="matrix(1,0,0,1,0,0)"><svg width="395.52" viewBox="4 -28.75 359.17999999999995 38.5" height="42.61830394626363" data-palette-color="url(#999a14c0-eab3-41cb-bd10-cde72bd3b131)"><g class="wordmark-text-0" data-fill-palette-color="primary" id="SvgjsG2580"><path d="M34.2-18.55L34.2-12.85 28.3-9.4 20.3-9.4 20.3-13.25 27.85-13.25 27.85-17.35 20.3-17.35 20.3-22.05 28.3-22.05 34.2-18.55ZM27.65-6.95L34.2-6.95 34.2-3.45 28.3 0 20.3 0 20.3-5.3 27.65-5.3 27.65-6.95ZM4-18.55L4-3.45 9.9 0 17.85 0 17.85-5.3 10.3-5.3 10.3-9.4 17.85-9.4 17.85-13.25 10.3-13.25 10.3-17.35 17.85-17.35 17.85-22.05 9.9-22.05 4-18.55ZM55.7-19.05L55.7-9.7 45.35 0 39.7-1.8 52.9-14.35 39.7-26.9 45.35-28.75 55.7-19.05ZM74.15-26.9L60.75-14.35 74.15-1.8 68.3 0 57.95-9.7 57.95-19.05 68.3-28.75 74.15-26.9ZM79.65-3.4L79.65-9.75 85.35-13.2 93.55-13.2 93.55-9.35 86-9.35 86-5.25 93.55-5.25 93.55 0.05 85.35 0.05 79.65-3.4ZM86-15.05L79.65-15.05 79.65-18.5 85.35-22 93.55-22 93.55-17.3 86-17.3 86-15.05ZM109.65 0.05L109.65-18.5 103.95-22 95.75-22 95.75-17.3 103.3-17.3 103.3-13.2 95.75-13.2 95.75-9.35 103.3-9.35 103.3-5.25 95.95-5.25 95.95 0.05 109.65 0.05ZM119.14-0.05L119.14-22 125.39-22 125.39-19.85 133.09-22 133.09-17.3 125.39-17.3 125.39-0.05 119.14-0.05ZM155.89-18.55L150.19-22 148.04-22 141.64-19.25 135.09-22 135.09-17.3 135.09-0.05 141.64-0.05 141.64-17.3 149.64-17.3 149.64-0.05 155.89-0.05 155.89-18.55Z" fill="black"></path><path d="M175.89-28.75L175.89-28.75 182.19-28.75 182.19-17.2 191.89-17.2 191.89-11.5 182.19-11.5 182.19 0 175.89 0 175.89-28.75ZM210.34-28.75L210.34-28.75 204.04-28.75 204.04-17.2 194.34-17.2 194.34-11.5 204.04-11.5 204.04 0 210.34 0 210.34-28.75ZM249.64-21.85L249.64 0 243.39 0 243.39-2.25 235.89 0 235.89-5.25 243.39-5.25 243.39-21.85 249.64-21.85ZM219.84-21.85L219.84-3.45 225.49 0 233.59 0 233.59-5.25 226.14-5.25 226.14-21.85 219.84-21.85ZM288.43-9.7L288.43-3.45 282.73 0 274.68 0 274.68-5.25 282.38-5.25 282.38-9.3 274.83-9.3 274.83-13.2 282.73-13.2 288.43-9.7ZM258.63-12.75L258.63-18.4 264.33-21.85 272.43-21.85 272.43-17.2 264.93-17.2 264.93-13.2 272.43-13.2 272.43-9.3 264.33-9.3 258.63-12.75ZM258.63-6.95L264.93-6.95 264.93-5.25 272.43-5.25 272.43 0 264.33 0 258.63-3.45 258.63-6.95ZM288.43-15.05L282.18-15.05 282.18-17.2 274.68-17.2 274.68-21.85 282.73-21.85 288.43-18.4 288.43-15.05ZM297.43 0.05L297.43-28.75 303.73-28.75 303.73-13.1 306.53-13.1 306.53-9.45 303.73-9.45 303.73 0.05 297.43 0.05ZM327.28-3.4L314.73-11.5 326.18-19.05 322.03-22 309.03-13.1 309.03-9.45 321.63 0.05 327.28-3.4ZM333.28-6.35L333.28-21.9 339.58-21.9 339.58-6.9 347.08-6.9 347.08-2.9 339.03-2.9 333.28-6.35ZM333.28 2.25L339.58 2.25 339.58 4.55 347.08 4.55 347.08 9.75 339.03 9.75 333.28 6.3 333.28 2.25ZM356.88-21.9L363.18-21.9 363.18 6.3 356.88 9.75 349.38 9.75 349.38 4.55 356.88 4.55 356.88-2.9 349.38-2.9 349.38-6.9 356.88-6.9 356.88-21.9Z" fill="black"></path></g></svg></g></svg></g></svg></g></svg></g><g><svg viewBox="0 0 65.37733061964732 65.37733061964734" height="65.37733061964734" width="65.37733061964732"><g><svg></svg></g><g id="SvgjsG2579"><svg viewBox="0 0 65.37733061964732 65.37733061964734" height="65.37733061964734" width="65.37733061964732"><g><path transform="scale(0.65377,0.65377)" d="M30 100c-16.569 0-30-13.431-30-30v-40c0-16.569 13.431-30 30-30h40c16.569 0 30 13.431 30 30v40c0 16.569-13.431 30-30 30z" fill="black" fill-rule="nonzero" stroke="none" stroke-width="1" stroke-linecap="butt" stroke-linejoin="miter" stroke-miterlimit="10" stroke-dasharray="" stroke-dashoffset="0" font-family="none" font-weight="none" font-size="none" text-anchor="none" style="mix-blend-mode: normal"></path></g><g transform="matrix(1,0,0,1,13.075466123929463,13.20774331672338)"><svg viewBox="0 0 39.2263983717884 38.96184398620058" height="38.96184398620058" width="39.2263983717884"><g><svg xmlns="http://www.w3.org/2000/svg" xmlns:xlink="http://www.w3.org/1999/xlink" version="1.1" x="0" y="0" viewBox="5 5 90.00200000000001 89.39500000000001" enable-background="new 0 0 100 100" xml:space="preserve" height="38.96184398620058" width="39.2263983717884" class="icon-cg-0" data-fill-palette-color="quaternary" id="SvgjsSvg2578"><path d="M50.001 14.562c1.054 0 1.912-0.847 1.912-1.911V6.914C51.913 5.858 51.056 5 50.001 5s-1.912 0.858-1.912 1.914v5.737C48.089 13.715 48.947 14.562 50.001 14.562z" fill="black"></path><path d="M29.666 18.617c0.364 0.608 1.004 0.96 1.667 0.96 0.318 0 0.649-0.083 0.952-0.259 0.918-0.527 1.226-1.694 0.701-2.615l-2.875-4.972c-0.524-0.919-1.694-1.231-2.614-0.703-0.911 0.527-1.22 1.705-0.694 2.615L29.666 18.617z" fill="black"></path><path d="M18.617 29.667l-4.974-2.864c-0.911-0.527-2.088-0.218-2.618 0.703-0.526 0.911-0.205 2.078 0.705 2.616l4.972 2.863c0.299 0.178 0.63 0.259 0.949 0.259 0.664 0 1.303-0.342 1.667-0.96C19.844 31.372 19.535 30.205 18.617 29.667z" fill="black"></path><path d="M14.562 50.001c0-1.052-0.847-1.912-1.911-1.912H6.914C5.858 48.089 5 48.949 5 50.001c0 1.056 0.858 1.915 1.914 1.915h5.737C13.715 51.916 14.562 51.058 14.562 50.001z" fill="black"></path><path d="M16.703 67.018l-4.972 2.875c-0.922 0.527-1.231 1.694-0.705 2.604 0.353 0.621 1.003 0.96 1.654 0.96 0.332 0 0.661-0.083 0.964-0.257l4.974-2.862c0.906-0.539 1.227-1.708 0.701-2.616C18.792 66.8 17.624 66.491 16.703 67.018z" fill="black"></path><path d="M88.273 69.893l-4.972-2.875c-0.911-0.526-2.08-0.218-2.616 0.704-0.527 0.908-0.209 2.077 0.701 2.616l4.972 2.862c0.301 0.174 0.634 0.257 0.952 0.257 0.662 0 1.305-0.339 1.664-0.948C89.503 71.587 89.192 70.42 88.273 69.893z" fill="black"></path><path d="M93.09 48.089h-5.738c-1.054 0-1.911 0.86-1.911 1.912 0 1.056 0.857 1.915 1.911 1.915h5.738c1.054 0 1.912-0.858 1.912-1.915C95.002 48.949 94.144 48.089 93.09 48.089z" fill="black"></path><path d="M82.35 33.244c0.319 0 0.651-0.081 0.952-0.259l4.972-2.863c0.919-0.528 1.229-1.705 0.701-2.616-0.527-0.92-1.693-1.23-2.616-0.703l-4.972 2.864c-0.91 0.538-1.229 1.705-0.701 2.616C81.045 32.892 81.688 33.244 82.35 33.244z" fill="black"></path><path d="M67.722 19.308c0.296 0.177 0.631 0.258 0.949 0.258 0.663 0 1.304-0.34 1.665-0.949l2.864-4.974c0.528-0.91 0.216-2.088-0.703-2.615-0.91-0.529-2.077-0.217-2.604 0.703l-2.875 4.972C66.491 17.614 66.8 18.781 67.722 19.308z" fill="black"></path><path d="M50.001 22.449c-14.8 0-26.849 11.646-26.849 25.959 0 9.289 3.769 14.818 6.547 18.89 1.706 2.503 2.678 3.989 2.678 5.492 0 3.365 1.797 6.539 5.006 8.923 0.083 1.999 0.376 6.867 0.376 6.867v0.01c0.055 1.384 5.557 5.805 5.557 5.805h13.378c0 0 5.511-4.476 5.548-5.814 0 0 0.294-4.868 0.375-6.867 3.21-2.376 5.007-5.558 5.007-8.923 0-1.494 0.973-2.989 2.696-5.52 2.751-4.035 6.529-9.564 6.529-18.862C76.851 34.094 64.801 22.449 50.001 22.449zM50.002 71.936c-1.833 0-3.344-1.51-3.344-3.346 0-1.837 1.511-3.339 3.344-3.339 1.834 0 3.341 1.502 3.341 3.339C53.343 70.426 51.836 71.936 50.002 71.936zM53.641 48.209c0 0.686-0.098 1.427-0.188 2.162l-1.428 10.772c-0.18 1.339-0.833 1.706-2.024 1.706-1.199 0-1.845-0.367-2.024-1.706l-1.427-10.772c-0.098-0.735-0.188-1.477-0.188-2.162v-5.347c0-2.351 1.336-3.541 3.639-3.541 2.302 0 3.64 1.19 3.64 3.541V48.209z" fill="black"></path></svg></g></svg></g></svg></g></svg></g></svg></g><defs><mask></mask></defs></svg><rect width="395.52" height="54.905140032207306" fill="black" stroke="none" visibility="hidden"></rect></g></mask></svg><rect width="395.52" height="54.905140032207306" fill="black" stroke="none" visibility="hidden"></rect></g></mask><linearGradient x1="0.054" x2="0.941" y1="0.5" y2="0.5" id="0317e1cb-7ad7-4b6c-9d0e-870c80bc3083"><stop stop-color="#0f3054" offset="0"></stop><stop stop-color="#3b8dcb" offset="0.498"></stop><stop stop-color="#0f3054" offset="1"></stop></linearGradient><rect width="395.52000000000004" height="54.905140032207306" fill="url(#0317e1cb-7ad7-4b6c-9d0e-870c80bc3083)" mask="url(#8dbc97df-69b4-49af-b9d2-ae1cf1703079)" data-fill-palette-color="accent"></rect></svg><rect width="395.52" height="54.905140032207306" fill="none" stroke="none" visibility="hidden"></rect></g></svg></g></svg>